<svg xmlns="http://www.w3.org/2000/svg" width="1340" height="820" viewBox="0 0 1340 820">
<style>text{font-family:system-ui,sans-serif;fill:#243340}path{fill:none;stroke-linejoin:round;stroke-linecap:round}.reference{stroke:#222f3b;stroke-width:2.3}.before{stroke:#d98235;stroke-width:2;stroke-dasharray:6 4}.after{stroke:#0089ae;stroke-width:2}.grid{stroke:#e4e9ed;stroke-width:1}</style>
<rect width="1340" height="820" fill="white"/>
<text x="35" y="35" font-size="24" font-weight="700">DA40 — handbook outline comparison</text>
<text x="35" y="60" font-size="13">DA40 AFM 6.01.01-E Rev 8, §1.7, p. 1-21 (PDF p. 37); 11.94 m wing</text>
<text x="40" y="90" font-size="16">SIDE · x/y metres · nose left</text><text x="930" y="90" font-size="16">HALF PLAN · span / fore-aft</text>
<text x="40" y="420" font-size="16">HALF FRONT · span / height · upper wing envelope</text>
<g class="grid"><path d="M800,100 V355"/><path d="M720,100 V355"/><path d="M640,100 V355"/><path d="M560,100 V355"/><path d="M480,100 V355"/><path d="M400,100 V355"/><path d="M320,100 V355"/><path d="M240,100 V355"/><path d="M160,100 V355"/><path d="M80,100 V355"/><path d="M40,339 H835"/><path d="M40,299 H835"/><path d="M40,259 H835"/><path d="M40,219 H835"/><path d="M40,179 H835"/><path d="M40,139 H835"/><path d="M930,110 V720"/><path d="M990,110 V720"/><path d="M1050,110 V720"/><path d="M1110,110 V720"/><path d="M1170,110 V720"/><path d="M1230,110 V720"/><path d="M1290,110 V720"/><path d="M925,685 H1305"/><path d="M925,625 H1305"/><path d="M925,565 H1305"/><path d="M925,505 H1305"/><path d="M925,445 H1305"/><path d="M925,385 H1305"/><path d="M925,325 H1305"/><path d="M925,265 H1305"/><path d="M925,205 H1305"/><path d="M925,145 H1305"/></g>
<g class="before"><path d="M757.60,288.60 L754.10,286.62 L750.59,285.20 L747.08,284.79 L743.58,284.46 L740.08,284.17 L736.57,283.86 L733.06,283.61 L729.56,283.38 L726.06,283.16 L722.55,282.93 L719.04,282.70 L715.54,282.46 L712.04,282.20 L708.53,282.04 L705.02,281.88 L701.52,281.71 L698.02,281.54 L694.51,281.37 L691.00,281.20 L687.50,281.02 L684.00,280.84 L680.49,280.66 L676.98,280.49 L673.48,280.31 L669.98,280.13 L666.47,279.93 L662.96,279.74 L659.46,279.55 L655.96,279.36 L652.45,279.16 L648.94,278.96 L645.44,278.76 L641.94,278.56 L638.43,278.35 L634.92,278.13 L631.42,277.93 L627.92,277.74 L624.41,277.56 L620.90,277.37 L617.40,277.17 L613.90,276.94 L610.39,276.70 L606.88,276.41 L603.38,276.08 L599.88,275.69 L596.37,275.24 L592.86,274.73 L589.36,274.17 L585.86,273.58 L582.35,272.98 L578.84,272.36 L575.34,271.75 L571.84,271.16 L568.33,270.60 L564.82,269.98 L561.32,269.06 L557.82,268.22 L554.31,267.39 L550.80,266.53 L547.30,265.62 L543.80,264.72 L540.29,263.82 L536.78,262.87 L533.28,261.83 L529.78,260.66 L526.27,259.26 L522.76,257.70 L519.26,256.04 L515.76,254.36 L512.25,252.71 L508.74,251.11 L505.24,249.49 L501.74,247.88 L498.23,246.29 L494.72,244.74 L491.22,243.25 L487.72,241.81 L484.21,240.39 L480.70,238.98 L477.20,237.56 L473.70,236.10 L470.19,234.59 L466.68,233.09 L463.18,231.67 L459.68,230.36 L456.17,229.08 L452.66,227.95 L449.16,226.91 L445.66,225.89 L442.15,224.97 L438.64,224.14 L435.14,223.31 L431.64,222.52 L428.13,221.77 L424.62,221.11 L421.12,220.45 L417.62,219.90 L414.11,219.43 L410.60,218.97 L407.10,218.49 L403.60,218.03 L400.09,217.57 L396.58,217.12 L393.08,216.68 L389.58,216.28 L386.07,215.89 L382.56,215.49 L379.06,215.12 L375.56,214.83 L372.05,214.63 L368.54,214.55 L365.04,214.55 L361.54,214.65 L358.03,214.82 L354.52,215.08 L351.02,215.36 L347.52,215.66 L344.01,216.01 L340.50,216.42 L337.00,216.92 L333.50,217.51 L329.99,218.24 L326.48,219.12 L322.98,220.10 L319.48,221.17 L315.97,222.27 L312.46,223.40 L308.96,224.66 L305.46,226.09 L301.95,227.57 L298.44,229.04 L294.94,230.47 L291.44,232.51 L287.93,234.85 L284.42,237.13 L280.92,239.27 L277.42,241.43 L273.91,243.08 L270.40,243.67 L266.90,243.09 L263.40,242.57 L259.89,242.44 L256.38,242.31 L252.88,242.20 L249.38,242.08 L245.87,241.97 L242.36,241.85 L238.86,241.74 L235.36,241.64 L231.85,241.56 L228.34,241.48 L224.84,241.43 L221.34,241.40 L217.83,241.41 L214.32,241.45 L210.82,241.52 L207.32,241.67 L203.81,241.89 L200.30,242.20 L196.80,242.60"/><path d="M757.60,297.40 L754.10,299.21 L750.59,300.32 L747.08,300.50 L743.58,300.55 L740.08,300.56 L736.57,300.59 L733.06,300.65 L729.56,300.71 L726.06,300.77 L722.55,300.82 L719.04,300.88 L715.54,300.94 L712.04,301.00 L708.53,301.04 L705.02,301.07 L701.52,301.11 L698.02,301.15 L694.51,301.19 L691.00,301.23 L687.50,301.27 L684.00,301.30 L680.49,301.34 L676.98,301.36 L673.48,301.39 L669.98,301.41 L666.47,301.42 L662.96,301.42 L659.46,301.42 L655.96,301.41 L652.45,301.40 L648.94,301.39 L645.44,301.38 L641.94,301.38 L638.43,301.39 L634.92,301.41 L631.42,301.43 L627.92,301.45 L624.41,301.47 L620.90,301.50 L617.40,301.54 L613.90,301.58 L610.39,301.62 L606.88,301.68 L603.38,301.74 L599.88,301.82 L596.37,301.92 L592.86,302.02 L589.36,302.14 L585.86,302.27 L582.35,302.41 L578.84,302.54 L575.34,302.67 L571.84,302.80 L568.33,302.92 L564.82,303.04 L561.32,303.22 L557.82,303.38 L554.31,303.53 L550.80,303.68 L547.30,303.83 L543.80,303.97 L540.29,304.09 L536.78,304.23 L533.28,304.39 L529.78,304.59 L526.27,304.85 L522.76,305.14 L519.26,305.47 L515.76,305.82 L512.25,306.17 L508.74,306.54 L505.24,306.92 L501.74,307.32 L498.23,307.73 L494.72,308.16 L491.22,308.62 L487.72,309.12 L484.21,309.63 L480.70,310.11 L477.20,310.55 L473.70,310.95 L470.19,311.31 L466.68,311.65 L463.18,311.94 L459.68,312.17 L456.17,312.36 L452.66,312.48 L449.16,312.54 L445.66,312.58 L442.15,312.62 L438.64,312.63 L435.14,312.63 L431.64,312.62 L428.13,312.61 L424.62,312.60 L421.12,312.61 L417.62,312.62 L414.11,312.63 L410.60,312.62 L407.10,312.59 L403.60,312.54 L400.09,312.46 L396.58,312.38 L393.08,312.30 L389.58,312.22 L386.07,312.14 L382.56,312.06 L379.06,311.98 L375.56,311.90 L372.05,311.82 L368.54,311.74 L365.04,311.68 L361.54,311.61 L358.03,311.53 L354.52,311.43 L351.02,311.33 L347.52,311.22 L344.01,311.09 L340.50,310.96 L337.00,310.82 L333.50,310.67 L329.99,310.50 L326.48,310.32 L322.98,310.12 L319.48,309.91 L315.97,309.70 L312.46,309.48 L308.96,309.22 L305.46,308.93 L301.95,308.63 L298.44,308.33 L294.94,308.05 L291.44,307.72 L287.93,307.39 L284.42,307.05 L280.92,306.70 L277.42,306.34 L273.91,305.94 L270.40,305.45 L266.90,304.89 L263.40,304.10 L259.89,303.49 L256.38,302.78 L252.88,301.97 L249.38,301.02 L245.87,299.89 L242.36,298.55 L238.86,297.09 L235.36,295.59 L231.85,294.12 L228.34,292.22 L224.84,290.32 L221.34,288.48 L217.83,286.56 L214.32,284.62 L210.82,282.80 L207.32,280.81 L203.81,278.87 L200.30,276.86 L196.80,275.00"/><path d="M744.00,301.40 L742.13,300.80 L740.26,300.20 L738.40,299.61 L736.53,299.01 L734.66,298.41 L732.80,297.82 L730.93,297.22 L729.06,296.62 L727.19,296.02 L725.33,295.42 L724.00,295.00 L723.11,294.83 L720.05,294.23 L716.98,293.63 L713.91,293.04 L710.85,292.44 L707.78,291.84 L704.71,291.24 L701.64,290.64 L698.58,290.05 L695.51,289.45 L692.44,288.85 L689.38,288.26 L686.31,287.66 L683.24,287.06 L680.17,286.46 L677.11,285.86 L674.04,285.27 L670.97,284.67 L667.91,284.07 L664.84,283.48 L662.40,283.00 L662.67,282.88 L663.98,282.28 L665.30,281.68 L666.61,281.08 L667.93,280.49 L669.24,279.89 L670.56,279.29 L671.87,278.70 L673.19,278.10 L674.50,277.50 L675.81,276.90 L677.13,276.30 L678.44,275.71 L679.76,275.11 L680.00,275.00 L680.78,274.51 L681.74,273.92 L682.69,273.32 L683.65,272.72 L684.60,272.12 L685.56,271.52 L686.52,270.93 L687.47,270.33 L688.43,269.73 L689.38,269.14 L690.34,268.54 L691.30,267.94 L692.25,267.34 L692.80,267.00 L693.06,266.74 L693.65,266.15 L694.25,265.55 L694.85,264.95 L695.44,264.36 L696.04,263.76 L696.64,263.16 L697.24,262.56 L697.84,261.96 L698.43,261.37 L699.03,260.77 L699.63,260.17 L700.22,259.58 L700.80,259.00 L700.82,258.98 L701.23,258.38 L701.65,257.78 L702.07,257.18 L702.49,256.59 L702.91,255.99 L703.33,255.39 L703.74,254.80 L704.16,254.20 L704.58,253.60 L705.00,253.00 L705.42,252.40 L705.83,251.81 L706.25,251.21 L706.40,251.00 L706.61,250.61 L706.93,250.02 L707.25,249.42 L707.58,248.82 L707.90,248.22 L708.22,247.62 L708.55,247.03 L708.87,246.43 L709.19,245.83 L709.51,245.24 L709.84,244.64 L710.16,244.04 L710.48,243.44 L710.80,242.84 L711.13,242.25 L711.45,241.65 L711.77,241.05 L712.09,240.46 L712.42,239.86 L712.74,239.26 L713.06,238.66 L713.39,238.06 L713.71,237.47 L714.03,236.87 L714.35,236.27 L714.68,235.68 L715.00,235.08 L715.04,235.00 L715.32,234.48 L715.64,233.88 L715.97,233.28 L716.29,232.69 L716.61,232.09 L716.93,231.49 L717.26,230.90 L717.58,230.30 L717.90,229.70 L718.22,229.10 L718.55,228.50 L718.87,227.91 L719.19,227.31 L719.52,226.71 L719.84,226.12 L720.16,225.52 L720.48,224.92 L720.81,224.32 L721.13,223.72 L721.45,223.13 L721.77,222.53 L722.10,221.93 L722.42,221.34 L722.74,220.74 L723.06,220.14 L723.39,219.54 L723.68,219.00 L723.71,218.94 L724.03,218.35 L724.35,217.75 L724.68,217.15 L725.00,216.56 L725.32,215.96 L725.64,215.36 L725.97,214.76 L726.29,214.16 L726.61,213.57 L726.93,212.97 L727.25,212.37 L727.58,211.78 L727.90,211.18 L728.22,210.58 L728.54,209.98 L728.87,209.38 L729.19,208.79 L729.51,208.19 L729.83,207.59 L730.16,207.00 L730.48,206.40 L730.80,205.80"/><path d="M797.60,301.40 L797.67,300.80 L797.75,300.20 L797.82,299.61 L797.90,299.01 L797.97,298.41 L798.05,297.82 L798.12,297.22 L798.20,296.62 L798.27,296.02 L798.35,295.42 L798.40,295.00 L798.41,294.83 L798.43,294.23 L798.45,293.63 L798.47,293.04 L798.49,292.44 L798.51,291.84 L798.53,291.24 L798.55,290.64 L798.57,290.05 L798.59,289.45 L798.60,288.85 L798.62,288.26 L798.64,287.66 L798.66,287.06 L798.68,286.46 L798.70,285.86 L798.72,285.27 L798.74,284.67 L798.76,284.07 L798.78,283.48 L798.80,283.00 L798.80,282.88 L798.82,282.28 L798.84,281.68 L798.86,281.08 L798.88,280.49 L798.89,279.89 L798.91,279.29 L798.93,278.70 L798.95,278.10 L798.97,277.50 L798.98,276.90 L799.00,276.30 L799.02,275.71 L799.04,275.11 L799.04,275.00 L799.05,274.51 L799.06,273.92 L799.07,273.32 L799.09,272.72 L799.10,272.12 L799.11,271.52 L799.12,270.93 L799.13,270.33 L799.15,269.73 L799.16,269.14 L799.17,268.54 L799.18,267.94 L799.19,267.34 L799.20,267.00 L799.21,266.74 L799.22,266.15 L799.23,265.55 L799.24,264.95 L799.25,264.36 L799.26,263.76 L799.28,263.16 L799.29,262.56 L799.30,261.96 L799.31,261.37 L799.32,260.77 L799.34,260.17 L799.35,259.58 L799.36,259.00 L799.36,258.98 L799.37,258.38 L799.38,257.78 L799.40,257.18 L799.41,256.59 L799.42,255.99 L799.43,255.39 L799.44,254.80 L799.46,254.20 L799.47,253.60 L799.48,253.00 L799.49,252.40 L799.50,251.81 L799.52,251.21 L799.52,251.00 L799.52,250.61 L799.53,250.02 L799.54,249.42 L799.54,248.82 L799.55,248.22 L799.55,247.62 L799.56,247.03 L799.57,246.43 L799.57,245.83 L799.58,245.24 L799.58,244.64 L799.59,244.04 L799.60,243.44 L799.60,242.84 L799.61,242.25 L799.61,241.65 L799.62,241.05 L799.63,240.46 L799.63,239.86 L799.64,239.26 L799.64,238.66 L799.65,238.06 L799.66,237.47 L799.66,236.87 L799.67,236.27 L799.67,235.68 L799.68,235.08 L799.68,235.00 L799.69,234.48 L799.69,233.88 L799.70,233.28 L799.70,232.69 L799.71,232.09 L799.72,231.49 L799.72,230.90 L799.73,230.30 L799.73,229.70 L799.74,229.10 L799.74,228.50 L799.75,227.91 L799.76,227.31 L799.76,226.71 L799.77,226.12 L799.77,225.52 L799.78,224.92 L799.79,224.32 L799.79,223.72 L799.80,223.13 L799.80,222.53 L799.81,221.93 L799.82,221.34 L799.82,220.74 L799.83,220.14 L799.83,219.54 L799.84,219.00 L799.84,218.94 L799.85,218.35 L799.86,217.75 L799.86,217.15 L799.87,216.56 L799.88,215.96 L799.88,215.36 L799.89,214.76 L799.90,214.16 L799.91,213.57 L799.91,212.97 L799.92,212.37 L799.93,211.78 L799.93,211.18 L799.94,210.58 L799.95,209.98 L799.96,209.38 L799.96,208.79 L799.97,208.19 L799.98,207.59 L799.99,207.00 L799.99,206.40 L800.00,205.80"/><path d="M930.00,331.00 L931.49,331.00 L932.99,331.00 L934.48,331.00 L935.97,331.00 L937.46,331.00 L938.96,331.00 L940.45,331.00 L941.94,331.00 L943.43,331.00 L944.92,331.00 L946.42,331.00 L947.91,331.00 L949.40,331.00 L950.89,331.00 L952.39,331.00 L953.88,331.00 L955.37,331.00 L956.87,331.00 L958.36,331.00 L959.85,331.00 L961.34,331.00 L962.84,331.00 L964.33,331.00 L965.82,331.18 L967.31,331.45 L968.80,331.72 L970.30,331.99 L971.79,332.26 L973.28,332.53 L974.77,332.80 L976.27,333.07 L977.76,333.34 L979.25,333.61 L980.75,333.88 L982.24,334.15 L983.73,334.42 L985.22,334.69 L986.72,334.96 L988.21,335.23 L989.70,335.50 L991.19,335.77 L992.68,336.04 L994.18,336.31 L995.67,336.58 L997.16,336.66 L998.65,336.69 L1000.15,336.71 L1001.64,336.74 L1003.13,336.76 L1004.63,336.79 L1006.12,336.82 L1007.61,336.84 L1009.10,336.87 L1010.60,336.90 L1012.09,336.92 L1013.58,336.95 L1015.07,336.97 L1016.57,337.00 L1018.06,337.03 L1019.55,337.05 L1021.04,337.08 L1022.53,337.10 L1024.03,337.13 L1025.52,337.16 L1027.01,337.18 L1028.51,337.21 L1030.00,337.24 L1031.49,337.26 L1032.98,337.29 L1034.47,337.31 L1035.97,337.34 L1037.46,337.37 L1038.95,337.39 L1040.44,337.42 L1041.94,337.44 L1043.43,337.47 L1044.92,337.50 L1046.41,337.52 L1047.91,337.55 L1049.40,337.57 L1050.89,337.60 L1052.38,337.63 L1053.88,337.65 L1055.37,337.68 L1056.86,337.70 L1058.36,337.73 L1059.85,337.76 L1061.34,337.78 L1062.83,337.81 L1064.33,337.84 L1065.82,337.86 L1067.31,337.89 L1068.80,337.91 L1070.30,337.94 L1071.79,337.97 L1073.28,337.99 L1074.77,338.02 L1076.26,338.04 L1077.76,338.07 L1079.25,338.10 L1080.74,338.12 L1082.23,338.15 L1083.73,338.18 L1085.22,338.20 L1086.71,338.23 L1088.20,338.25 L1089.70,338.28 L1091.19,338.31 L1092.68,338.33 L1094.17,338.36 L1095.67,338.38 L1097.16,338.41 L1098.65,338.44 L1100.14,338.46 L1101.64,338.49 L1103.13,338.51 L1104.62,338.54 L1106.12,338.57 L1107.61,338.59 L1109.10,338.62 L1110.59,338.65 L1112.09,338.67 L1113.58,338.70 L1115.07,338.72 L1116.56,338.75 L1118.06,338.78 L1119.55,338.80 L1121.04,338.83 L1122.53,338.85 L1124.03,338.88 L1125.52,338.91 L1127.01,338.93 L1128.50,338.96 L1129.99,338.98 L1131.49,339.01 L1132.98,339.04 L1134.47,339.06 L1135.96,339.09 L1137.46,339.12 L1138.95,339.14 L1140.44,339.17 L1141.93,339.19 L1143.43,339.22 L1144.92,339.25 L1146.41,339.27 L1147.90,339.30 L1149.40,339.32 L1150.89,339.35 L1152.38,339.38 L1153.88,339.40 L1155.37,339.43 L1156.86,339.46 L1158.35,339.48 L1159.85,339.51 L1161.34,339.53 L1162.83,339.56 L1164.32,339.59 L1165.82,339.61 L1167.31,339.64 L1168.80,339.66 L1170.29,339.69 L1171.79,339.72 L1173.28,339.74 L1174.77,339.77 L1176.26,339.79 L1177.76,339.82 L1179.25,339.85 L1180.74,339.87 L1182.23,339.90 L1183.72,339.93 L1185.22,339.95 L1186.71,339.98 L1188.20,340.00 L1189.69,340.03 L1191.19,340.06 L1192.68,340.08 L1194.17,340.11 L1195.66,340.13 L1197.16,340.16 L1198.65,340.19 L1200.14,340.21 L1201.63,340.24 L1203.13,340.26 L1204.62,340.29 L1206.11,340.32 L1207.61,340.34 L1209.10,340.37 L1210.59,340.40 L1212.08,340.42 L1213.58,340.45 L1215.07,340.47 L1216.56,340.50 L1218.05,340.53 L1219.55,340.55 L1221.04,340.58 L1222.53,340.60 L1224.02,340.63 L1225.51,340.66 L1227.01,340.68 L1228.50,340.71 L1229.99,340.74 L1231.49,340.76 L1232.98,340.79 L1234.47,340.81 L1235.96,340.84 L1237.45,340.87 L1238.95,340.89 L1240.44,340.92 L1241.93,340.94 L1243.42,340.97 L1244.92,341.00 L1246.41,341.02 L1247.90,341.05 L1249.39,341.07 L1250.89,341.10 L1252.38,341.13 L1253.87,341.15 L1255.37,341.18 L1256.86,341.20 L1258.35,341.23 L1259.84,341.26 L1261.34,341.28 L1262.83,341.31 L1264.32,341.34 L1265.81,341.36 L1267.30,341.39 L1268.80,341.41 L1270.29,341.61 L1271.78,344.37 L1273.28,347.13 L1274.77,349.89 L1276.26,352.65 L1277.75,355.42 L1279.24,358.18 L1280.74,360.94 L1282.23,363.70 L1283.72,366.47 L1285.22,369.23 L1286.71,371.99 L1288.20,374.75"/><path d="M930.00,419.80 L931.49,419.80 L932.99,419.80 L934.48,419.80 L935.97,419.80 L937.46,419.80 L938.96,419.80 L940.45,419.80 L941.94,419.80 L943.43,419.80 L944.92,419.80 L946.42,419.80 L947.91,419.80 L949.40,419.80 L950.89,419.80 L952.39,419.80 L953.88,419.80 L955.37,419.80 L956.87,419.80 L958.36,419.80 L959.85,419.80 L961.34,419.80 L962.84,419.80 L964.33,419.80 L965.82,419.55 L967.31,419.19 L968.80,418.83 L970.30,418.47 L971.79,418.11 L973.28,417.74 L974.77,417.38 L976.27,417.02 L977.76,416.66 L979.25,416.30 L980.75,415.94 L982.24,415.57 L983.73,415.21 L985.22,414.85 L986.72,414.49 L988.21,414.13 L989.70,413.77 L991.19,413.40 L992.68,413.04 L994.18,412.68 L995.67,412.32 L997.16,412.17 L998.65,412.07 L1000.15,411.98 L1001.64,411.88 L1003.13,411.79 L1004.63,411.69 L1006.12,411.60 L1007.61,411.51 L1009.10,411.41 L1010.60,411.32 L1012.09,411.22 L1013.58,411.13 L1015.07,411.03 L1016.57,410.94 L1018.06,410.85 L1019.55,410.75 L1021.04,410.66 L1022.53,410.56 L1024.03,410.47 L1025.52,410.37 L1027.01,410.28 L1028.51,410.19 L1030.00,410.09 L1031.49,410.00 L1032.98,409.90 L1034.47,409.81 L1035.97,409.71 L1037.46,409.62 L1038.95,409.53 L1040.44,409.43 L1041.94,409.34 L1043.43,409.24 L1044.92,409.15 L1046.41,409.05 L1047.91,408.96 L1049.40,408.87 L1050.89,408.77 L1052.38,408.68 L1053.88,408.58 L1055.37,408.49 L1056.86,408.39 L1058.36,408.30 L1059.85,408.20 L1061.34,408.11 L1062.83,408.02 L1064.33,407.92 L1065.82,407.83 L1067.31,407.73 L1068.80,407.64 L1070.30,407.54 L1071.79,407.45 L1073.28,407.36 L1074.77,407.26 L1076.26,407.17 L1077.76,407.07 L1079.25,406.98 L1080.74,406.88 L1082.23,406.79 L1083.73,406.70 L1085.22,406.60 L1086.71,406.51 L1088.20,406.41 L1089.70,406.32 L1091.19,406.22 L1092.68,406.13 L1094.17,406.04 L1095.67,405.94 L1097.16,405.85 L1098.65,405.75 L1100.14,405.66 L1101.64,405.56 L1103.13,405.47 L1104.62,405.37 L1106.12,405.28 L1107.61,405.19 L1109.10,405.09 L1110.59,405.00 L1112.09,404.90 L1113.58,404.81 L1115.07,404.71 L1116.56,404.62 L1118.06,404.53 L1119.55,404.43 L1121.04,404.34 L1122.53,404.24 L1124.03,404.15 L1125.52,404.05 L1127.01,403.96 L1128.50,403.87 L1129.99,403.77 L1131.49,403.68 L1132.98,403.58 L1134.47,403.49 L1135.96,403.39 L1137.46,403.30 L1138.95,403.21 L1140.44,403.11 L1141.93,403.02 L1143.43,402.92 L1144.92,402.83 L1146.41,402.73 L1147.90,402.64 L1149.40,402.55 L1150.89,402.45 L1152.38,402.36 L1153.88,402.26 L1155.37,402.17 L1156.86,402.07 L1158.35,401.98 L1159.85,401.89 L1161.34,401.79 L1162.83,401.70 L1164.32,401.60 L1165.82,401.51 L1167.31,401.41 L1168.80,401.32 L1170.29,401.22 L1171.79,401.13 L1173.28,401.04 L1174.77,400.94 L1176.26,400.85 L1177.76,400.75 L1179.25,400.66 L1180.74,400.56 L1182.23,400.47 L1183.72,400.38 L1185.22,400.28 L1186.71,400.19 L1188.20,400.09 L1189.69,400.00 L1191.19,399.90 L1192.68,399.81 L1194.17,399.72 L1195.66,399.62 L1197.16,399.53 L1198.65,399.43 L1200.14,399.34 L1201.63,399.24 L1203.13,399.15 L1204.62,399.06 L1206.11,398.96 L1207.61,398.87 L1209.10,398.77 L1210.59,398.68 L1212.08,398.58 L1213.58,398.49 L1215.07,398.39 L1216.56,398.30 L1218.05,398.21 L1219.55,398.11 L1221.04,398.02 L1222.53,397.92 L1224.02,397.83 L1225.51,397.73 L1227.01,397.64 L1228.50,397.55 L1229.99,397.45 L1231.49,397.36 L1232.98,397.26 L1234.47,397.17 L1235.96,397.07 L1237.45,396.98 L1238.95,396.89 L1240.44,396.79 L1241.93,396.70 L1243.42,396.60 L1244.92,396.51 L1246.41,396.41 L1247.90,396.32 L1249.39,396.23 L1250.89,396.13 L1252.38,396.04 L1253.87,395.94 L1255.37,395.85 L1256.86,395.75 L1258.35,395.66 L1259.84,395.57 L1261.34,395.47 L1262.83,395.38 L1264.32,395.28 L1265.81,395.19 L1267.30,395.09 L1268.80,395.00 L1270.29,394.90 L1271.78,394.81 L1273.28,394.72 L1274.77,394.62 L1276.26,394.53 L1277.75,394.43 L1279.24,394.34 L1280.74,394.24 L1282.23,394.15 L1283.72,394.06 L1285.22,393.96 L1286.71,393.87 L1288.20,393.77"/><path d="M930.00,634.00 L930.61,634.13 L931.22,634.26 L931.83,634.39 L932.44,634.53 L933.05,634.66 L933.66,634.79 L934.27,634.92 L934.88,635.05 L935.48,635.18 L936.09,635.31 L936.70,635.44 L937.31,635.57 L937.92,635.71 L938.53,635.84 L939.14,635.97 L939.75,636.10 L940.36,636.23 L940.97,636.36 L941.58,636.49 L942.19,636.63 L942.80,636.76 L943.41,636.89 L944.02,637.02 L944.63,637.15 L945.23,637.28 L945.84,637.41 L946.45,637.54 L947.06,637.67 L947.67,637.81 L948.28,637.94 L948.89,638.07 L949.50,638.20 L950.11,638.33 L950.72,638.46 L951.33,638.59 L951.94,638.73 L952.55,638.86 L953.16,638.99 L953.77,639.12 L954.38,639.25 L954.98,639.38 L955.59,639.51 L956.20,639.64 L956.81,639.77 L957.42,639.91 L958.03,640.04 L958.64,640.17 L959.25,640.30 L959.86,640.43 L960.47,640.56 L961.08,640.69 L961.69,640.83 L962.30,640.96 L962.91,641.09 L963.52,641.22 L964.13,641.35 L964.73,641.48 L965.34,641.61 L965.95,641.74 L966.56,641.88 L967.17,642.01 L967.78,642.14 L968.39,642.27 L969.00,642.40 L969.61,642.53 L970.22,642.66 L970.83,642.79 L971.44,642.92 L972.05,643.06 L972.66,643.19 L973.27,643.32 L973.88,643.45 L974.48,643.58 L975.09,643.71 L975.70,643.84 L976.31,643.98 L976.92,644.11 L977.53,644.24 L978.14,644.37 L978.75,644.50 L979.36,644.63 L979.97,644.76 L980.58,644.89 L981.19,645.02 L981.80,645.16 L982.41,645.29 L983.02,645.42 L983.63,645.55 L984.23,645.68 L984.84,645.81 L985.45,645.94 L986.06,646.08 L986.67,646.21 L987.28,646.34 L987.89,646.47 L988.50,646.60 L989.11,646.73 L989.72,646.86 L990.33,646.99 L990.94,647.13 L991.55,647.26 L992.16,647.39 L992.77,647.52 L993.38,647.65 L993.98,647.78 L994.59,647.91 L995.20,648.04 L995.81,648.18 L996.42,648.31 L997.03,648.44 L997.64,648.57 L998.25,648.70 L998.86,648.83 L999.47,648.96 L1000.08,649.09 L1000.69,649.22 L1001.30,649.36 L1001.91,649.49 L1002.52,649.62 L1003.13,649.75 L1003.73,649.88 L1004.34,650.01 L1004.95,650.14 L1005.56,650.28 L1006.17,650.41 L1006.78,650.54 L1007.39,650.67 L1008.00,650.80 L1008.61,650.93 L1009.22,651.06 L1009.83,651.19 L1010.44,651.32 L1011.05,651.46 L1011.66,651.59 L1012.27,651.72 L1012.88,651.85 L1013.48,651.98 L1014.09,652.11 L1014.70,652.24 L1015.31,652.38 L1015.92,652.51 L1016.53,652.64 L1017.14,652.77 L1017.75,652.90 L1018.36,653.03 L1018.97,653.16 L1019.58,653.29 L1020.19,653.42 L1020.80,653.56 L1021.41,653.69 L1022.02,653.82 L1022.63,653.95 L1023.23,654.08 L1023.84,654.21 L1024.45,654.34 L1025.06,654.48 L1025.67,654.61 L1026.28,654.74 L1026.89,654.87 L1027.50,655.00"/><path d="M930.00,688.00 L930.61,688.00 L931.22,688.00 L931.83,688.00 L932.44,688.00 L933.05,688.00 L933.66,688.00 L934.27,688.00 L934.88,688.00 L935.48,688.00 L936.09,688.00 L936.70,688.00 L937.31,688.00 L937.92,688.00 L938.53,688.00 L939.14,688.00 L939.75,688.00 L940.36,688.00 L940.97,688.00 L941.58,688.00 L942.19,688.00 L942.80,688.00 L943.41,688.00 L944.02,688.00 L944.63,688.00 L945.23,688.00 L945.84,688.00 L946.45,688.00 L947.06,688.00 L947.67,688.00 L948.28,688.00 L948.89,688.00 L949.50,688.00 L950.11,688.00 L950.72,688.00 L951.33,688.00 L951.94,688.00 L952.55,688.00 L953.16,688.00 L953.77,688.00 L954.38,688.00 L954.98,688.00 L955.59,688.00 L956.20,688.00 L956.81,688.00 L957.42,688.00 L958.03,688.00 L958.64,688.00 L959.25,688.00 L959.86,688.00 L960.47,688.00 L961.08,688.00 L961.69,688.00 L962.30,688.00 L962.91,688.00 L963.52,688.00 L964.13,688.00 L964.73,688.00 L965.34,688.00 L965.95,688.00 L966.56,688.00 L967.17,688.00 L967.78,688.00 L968.39,688.00 L969.00,688.00 L969.61,688.00 L970.22,688.00 L970.83,688.00 L971.44,688.00 L972.05,688.00 L972.66,688.00 L973.27,688.00 L973.88,688.00 L974.48,688.00 L975.09,688.00 L975.70,688.00 L976.31,688.00 L976.92,688.00 L977.53,688.00 L978.14,688.00 L978.75,688.00 L979.36,688.00 L979.97,688.00 L980.58,688.00 L981.19,688.00 L981.80,688.00 L982.41,688.00 L983.02,688.00 L983.63,688.00 L984.23,688.00 L984.84,688.00 L985.45,688.00 L986.06,688.00 L986.67,688.00 L987.28,688.00 L987.89,688.00 L988.50,688.00 L989.11,688.00 L989.72,688.00 L990.33,688.00 L990.94,688.00 L991.55,688.00 L992.16,688.00 L992.77,688.00 L993.38,688.00 L993.98,688.00 L994.59,688.00 L995.20,688.00 L995.81,688.00 L996.42,688.00 L997.03,688.00 L997.64,688.00 L998.25,688.00 L998.86,688.00 L999.47,688.00 L1000.08,688.00 L1000.69,688.00 L1001.30,688.00 L1001.91,688.00 L1002.52,688.00 L1003.13,688.00 L1003.73,688.00 L1004.34,688.00 L1004.95,688.00 L1005.56,688.00 L1006.17,688.00 L1006.78,688.00 L1007.39,688.00 L1008.00,688.00 L1008.61,688.00 L1009.22,688.00 L1009.83,688.00 L1010.44,688.00 L1011.05,688.00 L1011.66,688.00 L1012.27,688.00 L1012.88,688.00 L1013.48,688.00 L1014.09,688.00 L1014.70,688.00 L1015.31,688.00 L1015.92,688.00 L1016.53,688.00 L1017.14,688.00 L1017.75,688.00 L1018.36,688.00 L1018.97,688.00 L1019.58,688.00 L1020.19,688.00 L1020.80,688.00 L1021.41,688.00 L1022.02,688.00 L1022.63,688.00 L1023.23,688.00 L1023.84,688.00 L1024.45,688.00 L1025.06,688.00 L1025.67,688.00 L1026.28,688.00 L1026.89,688.00 L1027.50,688.00"/><path d="M45.00,651.47 L49.29,651.10 L53.58,650.73 L57.87,650.36 L62.16,649.99 L66.45,649.62 L70.75,649.26 L75.04,648.89 L79.33,648.52 L83.62,648.15 L87.91,647.78 L92.20,647.41 L96.49,647.04 L100.78,646.67 L105.07,646.30 L109.36,645.94 L113.66,645.66 L117.95,645.48 L122.24,645.31 L126.53,645.13 L130.82,644.96 L135.11,644.78 L139.40,644.60 L143.69,644.43 L147.98,644.25 L152.27,644.08 L156.56,643.90 L160.86,643.72 L165.15,643.55 L169.44,643.37 L173.73,643.11 L178.02,642.78 L182.31,642.45 L186.60,642.12 L190.89,641.78 L195.18,641.45 L199.47,641.12 L203.76,640.78 L208.06,640.45 L212.35,640.12 L216.64,639.78 L220.93,639.45 L225.22,639.12 L229.51,638.78 L233.80,638.45 L238.09,638.12 L242.38,637.78 L246.67,637.45 L250.97,637.12 L255.26,636.78 L259.55,636.45 L263.84,636.12 L268.13,635.78 L272.42,635.45 L276.71,635.12 L281.00,634.78 L285.29,634.45 L289.58,634.12 L293.87,633.78 L298.17,633.45 L302.46,633.11 L306.75,632.78 L311.04,632.45 L315.33,632.11 L319.62,631.78 L323.91,631.45 L328.20,631.11 L332.49,630.78 L336.78,630.44 L341.07,630.11 L345.37,629.78 L349.66,629.44 L353.95,629.11 L358.24,628.77 L362.53,628.44 L366.82,628.10 L371.11,627.77 L375.40,627.44 L379.69,627.10 L383.98,626.77 L388.27,626.43 L392.57,626.10 L396.86,625.76 L401.15,625.43 L405.44,625.10 L409.73,624.76 L414.02,624.43 L418.31,624.09 L422.60,623.76 L426.89,623.42 L431.18,623.09 L435.48,622.75 L439.77,622.42 L444.06,622.09 L448.35,621.75 L452.64,621.42 L456.93,621.08 L461.22,620.75 L465.51,620.41 L469.80,620.08 L474.09,619.74 L478.38,619.41 L482.68,619.07 L486.97,618.74 L491.26,618.40 L495.55,618.07 L499.84,617.73 L504.13,617.40 L508.42,617.06 L512.71,616.73 L517.00,616.39 L521.29,616.06 L525.59,615.72 L529.88,615.39 L534.17,615.05 L538.46,614.72 L542.75,614.38 L547.04,614.05 L551.33,613.71 L555.62,613.38 L559.91,613.04 L564.20,612.70 L568.49,612.37 L572.79,612.03 L577.08,611.70 L581.37,611.36 L585.66,611.03 L589.95,610.69 L594.24,610.36 L598.53,610.02 L602.82,609.68 L607.11,609.35 L611.40,609.01 L615.69,608.68 L619.99,608.34 L624.28,608.01 L628.57,607.67 L632.86,607.33 L637.15,607.00 L641.44,606.66 L645.73,606.33 L650.02,605.99 L654.31,605.65 L658.60,605.32 L662.89,604.98 L667.19,604.65 L671.48,604.31 L675.77,603.97 L680.06,603.64 L684.35,603.30 L688.64,602.69 L692.93,601.84 L697.22,600.87 L701.51,600.54 L705.80,600.11 L710.10,599.58 L714.39,598.96 L718.68,598.27 L722.97,597.50 L727.26,596.65 L731.55,595.74"/></g><g class="after"><path d="M757.60,288.60 L754.10,286.62 L750.59,285.20 L747.08,284.79 L743.58,284.46 L740.08,284.17 L736.57,283.86 L733.06,283.61 L729.56,283.38 L726.06,283.16 L722.55,282.93 L719.04,282.70 L715.54,282.46 L712.04,282.20 L708.53,282.04 L705.02,281.88 L701.52,281.71 L698.02,281.54 L694.51,281.37 L691.00,281.20 L687.50,281.02 L684.00,280.84 L680.49,280.66 L676.98,280.49 L673.48,280.31 L669.98,280.13 L666.47,279.93 L662.96,279.74 L659.46,279.55 L655.96,279.36 L652.45,279.16 L648.94,278.96 L645.44,278.76 L641.94,278.56 L638.43,278.35 L634.92,278.13 L631.42,277.93 L627.92,277.74 L624.41,277.56 L620.90,277.37 L617.40,277.17 L613.90,276.94 L610.39,276.70 L606.88,276.41 L603.38,276.08 L599.88,275.69 L596.37,275.24 L592.86,274.73 L589.36,274.17 L585.86,273.58 L582.35,272.98 L578.84,272.36 L575.34,271.75 L571.84,271.16 L568.33,270.60 L564.82,269.98 L561.32,269.06 L557.82,268.22 L554.31,267.39 L550.80,266.53 L547.30,265.62 L543.80,264.72 L540.29,263.82 L536.78,262.87 L533.28,261.83 L529.78,260.66 L526.27,259.26 L522.76,257.70 L519.26,256.04 L515.76,254.36 L512.25,252.71 L508.74,251.11 L505.24,249.49 L501.74,247.88 L498.23,246.29 L494.72,244.74 L491.22,243.25 L487.72,241.81 L484.21,240.39 L480.70,238.98 L477.20,237.56 L473.70,236.10 L470.19,234.59 L466.68,233.09 L463.18,231.67 L459.68,230.36 L456.17,229.08 L452.66,227.95 L449.16,226.91 L445.66,225.89 L442.15,224.97 L438.64,224.14 L435.14,223.31 L431.64,222.52 L428.13,221.77 L424.62,221.11 L421.12,220.45 L417.62,219.90 L414.11,219.43 L410.60,218.97 L407.10,218.49 L403.60,218.03 L400.09,217.57 L396.58,217.12 L393.08,216.68 L389.58,216.28 L386.07,215.89 L382.56,215.49 L379.06,215.12 L375.56,214.83 L372.05,214.63 L368.54,214.55 L365.04,214.55 L361.54,214.65 L358.03,214.82 L354.52,215.08 L351.02,215.36 L347.52,215.66 L344.01,216.01 L340.50,216.42 L337.00,216.92 L333.50,217.51 L329.99,218.24 L326.48,219.12 L322.98,220.10 L319.48,221.17 L315.97,222.27 L312.46,223.40 L308.96,224.66 L305.46,226.09 L301.95,227.57 L298.44,229.04 L294.94,230.47 L291.44,232.51 L287.93,234.85 L284.42,237.13 L280.92,239.27 L277.42,241.43 L273.91,243.08 L270.40,243.67 L266.90,243.09 L263.40,242.57 L259.89,242.44 L256.38,242.31 L252.88,242.20 L249.38,242.08 L245.87,241.97 L242.36,241.85 L238.86,241.74 L235.36,241.64 L231.85,241.56 L228.34,241.48 L224.84,241.43 L221.34,241.40 L217.83,241.41 L214.32,241.45 L210.82,241.52 L207.32,241.67 L203.81,241.89 L200.30,242.20 L196.80,242.60"/><path d="M757.60,297.40 L754.10,299.21 L750.59,300.32 L747.08,300.50 L743.58,300.55 L740.08,300.56 L736.57,300.59 L733.06,300.65 L729.56,300.71 L726.06,300.77 L722.55,300.82 L719.04,300.88 L715.54,300.94 L712.04,301.00 L708.53,301.04 L705.02,301.07 L701.52,301.11 L698.02,301.15 L694.51,301.19 L691.00,301.23 L687.50,301.27 L684.00,301.30 L680.49,301.34 L676.98,301.36 L673.48,301.39 L669.98,301.41 L666.47,301.42 L662.96,301.42 L659.46,301.42 L655.96,301.41 L652.45,301.40 L648.94,301.39 L645.44,301.38 L641.94,301.38 L638.43,301.39 L634.92,301.41 L631.42,301.43 L627.92,301.45 L624.41,301.47 L620.90,301.50 L617.40,301.54 L613.90,301.58 L610.39,301.62 L606.88,301.68 L603.38,301.74 L599.88,301.82 L596.37,301.92 L592.86,302.02 L589.36,302.14 L585.86,302.27 L582.35,302.41 L578.84,302.54 L575.34,302.67 L571.84,302.80 L568.33,302.92 L564.82,303.04 L561.32,303.22 L557.82,303.38 L554.31,303.53 L550.80,303.68 L547.30,303.83 L543.80,303.97 L540.29,304.09 L536.78,304.23 L533.28,304.39 L529.78,304.59 L526.27,304.85 L522.76,305.14 L519.26,305.47 L515.76,305.82 L512.25,306.17 L508.74,306.54 L505.24,306.92 L501.74,307.32 L498.23,307.73 L494.72,308.16 L491.22,308.62 L487.72,309.12 L484.21,309.63 L480.70,310.11 L477.20,310.55 L473.70,310.95 L470.19,311.31 L466.68,311.65 L463.18,311.94 L459.68,312.17 L456.17,312.36 L452.66,312.48 L449.16,312.54 L445.66,312.58 L442.15,312.62 L438.64,312.63 L435.14,312.63 L431.64,312.62 L428.13,312.61 L424.62,312.60 L421.12,312.61 L417.62,312.62 L414.11,312.63 L410.60,312.62 L407.10,312.59 L403.60,312.54 L400.09,312.46 L396.58,312.38 L393.08,312.30 L389.58,312.22 L386.07,312.14 L382.56,312.06 L379.06,311.98 L375.56,311.90 L372.05,311.82 L368.54,311.74 L365.04,311.68 L361.54,311.61 L358.03,311.53 L354.52,311.43 L351.02,311.33 L347.52,311.22 L344.01,311.09 L340.50,310.96 L337.00,310.82 L333.50,310.67 L329.99,310.50 L326.48,310.32 L322.98,310.12 L319.48,309.91 L315.97,309.70 L312.46,309.48 L308.96,309.22 L305.46,308.93 L301.95,308.63 L298.44,308.33 L294.94,308.05 L291.44,307.72 L287.93,307.39 L284.42,307.05 L280.92,306.70 L277.42,306.34 L273.91,305.94 L270.40,305.45 L266.90,304.89 L263.40,304.10 L259.89,303.49 L256.38,302.78 L252.88,301.97 L249.38,301.02 L245.87,299.89 L242.36,298.55 L238.86,297.09 L235.36,295.59 L231.85,294.12 L228.34,292.22 L224.84,290.32 L221.34,288.48 L217.83,286.56 L214.32,284.62 L210.82,282.80 L207.32,280.81 L203.81,278.87 L200.30,276.86 L196.80,275.00"/><path d="M744.00,301.40 L742.13,300.80 L740.26,300.20 L738.40,299.61 L736.53,299.01 L734.66,298.41 L732.80,297.82 L730.93,297.22 L729.06,296.62 L727.19,296.02 L725.33,295.42 L724.00,295.00 L723.11,294.83 L720.05,294.23 L716.98,293.63 L713.91,293.04 L710.85,292.44 L707.78,291.84 L704.71,291.24 L701.64,290.64 L698.58,290.05 L695.51,289.45 L692.44,288.85 L689.38,288.26 L686.31,287.66 L683.24,287.06 L680.17,286.46 L677.11,285.86 L674.04,285.27 L670.97,284.67 L667.91,284.07 L664.84,283.48 L662.40,283.00 L662.67,282.88 L663.98,282.28 L665.30,281.68 L666.61,281.08 L667.93,280.49 L669.24,279.89 L670.56,279.29 L671.87,278.70 L673.19,278.10 L674.50,277.50 L675.81,276.90 L677.13,276.30 L678.44,275.71 L679.76,275.11 L680.00,275.00 L680.78,274.51 L681.74,273.92 L682.69,273.32 L683.65,272.72 L684.60,272.12 L685.56,271.52 L686.52,270.93 L687.47,270.33 L688.43,269.73 L689.38,269.14 L690.34,268.54 L691.30,267.94 L692.25,267.34 L692.80,267.00 L693.06,266.74 L693.65,266.15 L694.25,265.55 L694.85,264.95 L695.44,264.36 L696.04,263.76 L696.64,263.16 L697.24,262.56 L697.84,261.96 L698.43,261.37 L699.03,260.77 L699.63,260.17 L700.22,259.58 L700.80,259.00 L700.82,258.98 L701.23,258.38 L701.65,257.78 L702.07,257.18 L702.49,256.59 L702.91,255.99 L703.33,255.39 L703.74,254.80 L704.16,254.20 L704.58,253.60 L705.00,253.00 L705.42,252.40 L705.83,251.81 L706.25,251.21 L706.40,251.00 L706.61,250.61 L706.93,250.02 L707.25,249.42 L707.58,248.82 L707.90,248.22 L708.22,247.62 L708.55,247.03 L708.87,246.43 L709.19,245.83 L709.51,245.24 L709.84,244.64 L710.16,244.04 L710.48,243.44 L710.80,242.84 L711.13,242.25 L711.45,241.65 L711.77,241.05 L712.09,240.46 L712.42,239.86 L712.74,239.26 L713.06,238.66 L713.39,238.06 L713.71,237.47 L714.03,236.87 L714.35,236.27 L714.68,235.68 L715.00,235.08 L715.04,235.00 L715.32,234.48 L715.64,233.88 L715.97,233.28 L716.29,232.69 L716.61,232.09 L716.93,231.49 L717.26,230.90 L717.58,230.30 L717.90,229.70 L718.22,229.10 L718.55,228.50 L718.87,227.91 L719.19,227.31 L719.52,226.71 L719.84,226.12 L720.16,225.52 L720.48,224.92 L720.81,224.32 L721.13,223.72 L721.45,223.13 L721.77,222.53 L722.10,221.93 L722.42,221.34 L722.74,220.74 L723.06,220.14 L723.39,219.54 L723.68,219.00 L723.71,218.94 L724.03,218.35 L724.35,217.75 L724.68,217.15 L725.00,216.56 L725.32,215.96 L725.64,215.36 L725.97,214.76 L726.29,214.16 L726.61,213.57 L726.93,212.97 L727.25,212.37 L727.58,211.78 L727.90,211.18 L728.22,210.58 L728.54,209.98 L728.87,209.38 L729.19,208.79 L729.51,208.19 L729.83,207.59 L730.16,207.00 L730.48,206.40 L730.80,205.80"/><path d="M797.60,301.40 L797.67,300.80 L797.75,300.20 L797.82,299.61 L797.90,299.01 L797.97,298.41 L798.05,297.82 L798.12,297.22 L798.20,296.62 L798.27,296.02 L798.35,295.42 L798.40,295.00 L798.41,294.83 L798.43,294.23 L798.45,293.63 L798.47,293.04 L798.49,292.44 L798.51,291.84 L798.53,291.24 L798.55,290.64 L798.57,290.05 L798.59,289.45 L798.60,288.85 L798.62,288.26 L798.64,287.66 L798.66,287.06 L798.68,286.46 L798.70,285.86 L798.72,285.27 L798.74,284.67 L798.76,284.07 L798.78,283.48 L798.80,283.00 L798.80,282.88 L798.82,282.28 L798.84,281.68 L798.86,281.08 L798.88,280.49 L798.89,279.89 L798.91,279.29 L798.93,278.70 L798.95,278.10 L798.97,277.50 L798.98,276.90 L799.00,276.30 L799.02,275.71 L799.04,275.11 L799.04,275.00 L799.05,274.51 L799.06,273.92 L799.07,273.32 L799.09,272.72 L799.10,272.12 L799.11,271.52 L799.12,270.93 L799.13,270.33 L799.15,269.73 L799.16,269.14 L799.17,268.54 L799.18,267.94 L799.19,267.34 L799.20,267.00 L799.21,266.74 L799.22,266.15 L799.23,265.55 L799.24,264.95 L799.25,264.36 L799.26,263.76 L799.28,263.16 L799.29,262.56 L799.30,261.96 L799.31,261.37 L799.32,260.77 L799.34,260.17 L799.35,259.58 L799.36,259.00 L799.36,258.98 L799.37,258.38 L799.38,257.78 L799.40,257.18 L799.41,256.59 L799.42,255.99 L799.43,255.39 L799.44,254.80 L799.46,254.20 L799.47,253.60 L799.48,253.00 L799.49,252.40 L799.50,251.81 L799.52,251.21 L799.52,251.00 L799.52,250.61 L799.53,250.02 L799.54,249.42 L799.54,248.82 L799.55,248.22 L799.55,247.62 L799.56,247.03 L799.57,246.43 L799.57,245.83 L799.58,245.24 L799.58,244.64 L799.59,244.04 L799.60,243.44 L799.60,242.84 L799.61,242.25 L799.61,241.65 L799.62,241.05 L799.63,240.46 L799.63,239.86 L799.64,239.26 L799.64,238.66 L799.65,238.06 L799.66,237.47 L799.66,236.87 L799.67,236.27 L799.67,235.68 L799.68,235.08 L799.68,235.00 L799.69,234.48 L799.69,233.88 L799.70,233.28 L799.70,232.69 L799.71,232.09 L799.72,231.49 L799.72,230.90 L799.73,230.30 L799.73,229.70 L799.74,229.10 L799.74,228.50 L799.75,227.91 L799.76,227.31 L799.76,226.71 L799.77,226.12 L799.77,225.52 L799.78,224.92 L799.79,224.32 L799.79,223.72 L799.80,223.13 L799.80,222.53 L799.81,221.93 L799.82,221.34 L799.82,220.74 L799.83,220.14 L799.83,219.54 L799.84,219.00 L799.84,218.94 L799.85,218.35 L799.86,217.75 L799.86,217.15 L799.87,216.56 L799.88,215.96 L799.88,215.36 L799.89,214.76 L799.90,214.16 L799.91,213.57 L799.91,212.97 L799.92,212.37 L799.93,211.78 L799.93,211.18 L799.94,210.58 L799.95,209.98 L799.96,209.38 L799.96,208.79 L799.97,208.19 L799.98,207.59 L799.99,207.00 L799.99,206.40 L800.00,205.80"/><path d="M930.00,331.00 L931.49,331.00 L932.99,331.00 L934.48,331.00 L935.97,331.00 L937.46,331.00 L938.96,331.00 L940.45,331.00 L941.94,331.00 L943.43,331.00 L944.92,331.00 L946.42,331.00 L947.91,331.00 L949.40,331.00 L950.89,331.00 L952.39,331.00 L953.88,331.00 L955.37,331.00 L956.87,331.00 L958.36,331.00 L959.85,331.00 L961.34,331.00 L962.84,331.00 L964.33,331.00 L965.82,331.18 L967.31,331.45 L968.80,331.72 L970.30,331.99 L971.79,332.26 L973.28,332.53 L974.77,332.80 L976.27,333.07 L977.76,333.34 L979.25,333.61 L980.75,333.88 L982.24,334.15 L983.73,334.42 L985.22,334.69 L986.72,334.96 L988.21,335.23 L989.70,335.50 L991.19,335.77 L992.68,336.04 L994.18,336.31 L995.67,336.58 L997.16,336.66 L998.65,336.69 L1000.15,336.71 L1001.64,336.74 L1003.13,336.76 L1004.63,336.79 L1006.12,336.82 L1007.61,336.84 L1009.10,336.87 L1010.60,336.90 L1012.09,336.92 L1013.58,336.95 L1015.07,336.97 L1016.57,337.00 L1018.06,337.03 L1019.55,337.05 L1021.04,337.08 L1022.53,337.10 L1024.03,337.13 L1025.52,337.16 L1027.01,337.18 L1028.51,337.21 L1030.00,337.24 L1031.49,337.26 L1032.98,337.29 L1034.47,337.31 L1035.97,337.34 L1037.46,337.37 L1038.95,337.39 L1040.44,337.42 L1041.94,337.44 L1043.43,337.47 L1044.92,337.50 L1046.41,337.52 L1047.91,337.55 L1049.40,337.57 L1050.89,337.60 L1052.38,337.63 L1053.88,337.65 L1055.37,337.68 L1056.86,337.70 L1058.36,337.73 L1059.85,337.76 L1061.34,337.78 L1062.83,337.81 L1064.33,337.84 L1065.82,337.86 L1067.31,337.89 L1068.80,337.91 L1070.30,337.94 L1071.79,337.97 L1073.28,337.99 L1074.77,338.02 L1076.26,338.04 L1077.76,338.07 L1079.25,338.10 L1080.74,338.12 L1082.23,338.15 L1083.73,338.18 L1085.22,338.20 L1086.71,338.23 L1088.20,338.25 L1089.70,338.28 L1091.19,338.31 L1092.68,338.33 L1094.17,338.36 L1095.67,338.38 L1097.16,338.41 L1098.65,338.44 L1100.14,338.46 L1101.64,338.49 L1103.13,338.51 L1104.62,338.54 L1106.12,338.57 L1107.61,338.59 L1109.10,338.62 L1110.59,338.65 L1112.09,338.67 L1113.58,338.70 L1115.07,338.72 L1116.56,338.75 L1118.06,338.78 L1119.55,338.80 L1121.04,338.83 L1122.53,338.85 L1124.03,338.88 L1125.52,338.91 L1127.01,338.93 L1128.50,338.96 L1129.99,338.98 L1131.49,339.01 L1132.98,339.04 L1134.47,339.06 L1135.96,339.09 L1137.46,339.12 L1138.95,339.14 L1140.44,339.17 L1141.93,339.19 L1143.43,339.22 L1144.92,339.25 L1146.41,339.27 L1147.90,339.30 L1149.40,339.32 L1150.89,339.35 L1152.38,339.38 L1153.88,339.40 L1155.37,339.43 L1156.86,339.46 L1158.35,339.48 L1159.85,339.51 L1161.34,339.53 L1162.83,339.56 L1164.32,339.59 L1165.82,339.61 L1167.31,339.64 L1168.80,339.66 L1170.29,339.69 L1171.79,339.72 L1173.28,339.74 L1174.77,339.77 L1176.26,339.79 L1177.76,339.82 L1179.25,339.85 L1180.74,339.87 L1182.23,339.90 L1183.72,339.93 L1185.22,339.95 L1186.71,339.98 L1188.20,340.00 L1189.69,340.03 L1191.19,340.06 L1192.68,340.08 L1194.17,340.11 L1195.66,340.13 L1197.16,340.16 L1198.65,340.19 L1200.14,340.21 L1201.63,340.24 L1203.13,340.26 L1204.62,340.29 L1206.11,340.32 L1207.61,340.34 L1209.10,340.37 L1210.59,340.40 L1212.08,340.42 L1213.58,340.45 L1215.07,340.47 L1216.56,340.50 L1218.05,340.53 L1219.55,340.55 L1221.04,340.58 L1222.53,340.60 L1224.02,340.63 L1225.51,340.66 L1227.01,340.68 L1228.50,340.71 L1229.99,340.74 L1231.49,340.76 L1232.98,340.79 L1234.47,340.81 L1235.96,340.84 L1237.45,340.87 L1238.95,340.89 L1240.44,340.92 L1241.93,340.94 L1243.42,340.97 L1244.92,341.00 L1246.41,341.02 L1247.90,341.05 L1249.39,341.07 L1250.89,341.10 L1252.38,341.13 L1253.87,341.15 L1255.37,341.18 L1256.86,341.20 L1258.35,341.23 L1259.84,341.26 L1261.34,341.28 L1262.83,341.31 L1264.32,341.34 L1265.81,341.36 L1267.30,341.39 L1268.80,341.41 L1270.29,341.61 L1271.78,344.37 L1273.28,347.13 L1274.77,349.89 L1276.26,352.65 L1277.75,355.42 L1279.24,358.18 L1280.74,360.94 L1282.23,363.70 L1283.72,366.47 L1285.22,369.23 L1286.71,371.99 L1288.20,374.75"/><path d="M930.00,419.80 L931.49,419.80 L932.99,419.80 L934.48,419.80 L935.97,419.80 L937.46,419.80 L938.96,419.80 L940.45,419.80 L941.94,419.80 L943.43,419.80 L944.92,419.80 L946.42,419.80 L947.91,419.80 L949.40,419.80 L950.89,419.80 L952.39,419.80 L953.88,419.80 L955.37,419.80 L956.87,419.80 L958.36,419.80 L959.85,419.80 L961.34,419.80 L962.84,419.80 L964.33,419.80 L965.82,419.55 L967.31,419.19 L968.80,418.83 L970.30,418.47 L971.79,418.11 L973.28,417.74 L974.77,417.38 L976.27,417.02 L977.76,416.66 L979.25,416.30 L980.75,415.94 L982.24,415.57 L983.73,415.21 L985.22,414.85 L986.72,414.49 L988.21,414.13 L989.70,413.77 L991.19,413.40 L992.68,413.04 L994.18,412.68 L995.67,412.32 L997.16,412.17 L998.65,412.07 L1000.15,411.98 L1001.64,411.88 L1003.13,411.79 L1004.63,411.69 L1006.12,411.60 L1007.61,411.51 L1009.10,411.41 L1010.60,411.32 L1012.09,411.22 L1013.58,411.13 L1015.07,411.03 L1016.57,410.94 L1018.06,410.85 L1019.55,410.75 L1021.04,410.66 L1022.53,410.56 L1024.03,410.47 L1025.52,410.37 L1027.01,410.28 L1028.51,410.19 L1030.00,410.09 L1031.49,410.00 L1032.98,409.90 L1034.47,409.81 L1035.97,409.71 L1037.46,409.62 L1038.95,409.53 L1040.44,409.43 L1041.94,409.34 L1043.43,409.24 L1044.92,409.15 L1046.41,409.05 L1047.91,408.96 L1049.40,408.87 L1050.89,408.77 L1052.38,408.68 L1053.88,408.58 L1055.37,408.49 L1056.86,408.39 L1058.36,408.30 L1059.85,408.20 L1061.34,408.11 L1062.83,408.02 L1064.33,407.92 L1065.82,407.83 L1067.31,407.73 L1068.80,407.64 L1070.30,407.54 L1071.79,407.45 L1073.28,407.36 L1074.77,407.26 L1076.26,407.17 L1077.76,407.07 L1079.25,406.98 L1080.74,406.88 L1082.23,406.79 L1083.73,406.70 L1085.22,406.60 L1086.71,406.51 L1088.20,406.41 L1089.70,406.32 L1091.19,406.22 L1092.68,406.13 L1094.17,406.04 L1095.67,405.94 L1097.16,405.85 L1098.65,405.75 L1100.14,405.66 L1101.64,405.56 L1103.13,405.47 L1104.62,405.37 L1106.12,405.28 L1107.61,405.19 L1109.10,405.09 L1110.59,405.00 L1112.09,404.90 L1113.58,404.81 L1115.07,404.71 L1116.56,404.62 L1118.06,404.53 L1119.55,404.43 L1121.04,404.34 L1122.53,404.24 L1124.03,404.15 L1125.52,404.05 L1127.01,403.96 L1128.50,403.87 L1129.99,403.77 L1131.49,403.68 L1132.98,403.58 L1134.47,403.49 L1135.96,403.39 L1137.46,403.30 L1138.95,403.21 L1140.44,403.11 L1141.93,403.02 L1143.43,402.92 L1144.92,402.83 L1146.41,402.73 L1147.90,402.64 L1149.40,402.55 L1150.89,402.45 L1152.38,402.36 L1153.88,402.26 L1155.37,402.17 L1156.86,402.07 L1158.35,401.98 L1159.85,401.89 L1161.34,401.79 L1162.83,401.70 L1164.32,401.60 L1165.82,401.51 L1167.31,401.41 L1168.80,401.32 L1170.29,401.22 L1171.79,401.13 L1173.28,401.04 L1174.77,400.94 L1176.26,400.85 L1177.76,400.75 L1179.25,400.66 L1180.74,400.56 L1182.23,400.47 L1183.72,400.38 L1185.22,400.28 L1186.71,400.19 L1188.20,400.09 L1189.69,400.00 L1191.19,399.90 L1192.68,399.81 L1194.17,399.72 L1195.66,399.62 L1197.16,399.53 L1198.65,399.43 L1200.14,399.34 L1201.63,399.24 L1203.13,399.15 L1204.62,399.06 L1206.11,398.96 L1207.61,398.87 L1209.10,398.77 L1210.59,398.68 L1212.08,398.58 L1213.58,398.49 L1215.07,398.39 L1216.56,398.30 L1218.05,398.21 L1219.55,398.11 L1221.04,398.02 L1222.53,397.92 L1224.02,397.83 L1225.51,397.73 L1227.01,397.64 L1228.50,397.55 L1229.99,397.45 L1231.49,397.36 L1232.98,397.26 L1234.47,397.17 L1235.96,397.07 L1237.45,396.98 L1238.95,396.89 L1240.44,396.79 L1241.93,396.70 L1243.42,396.60 L1244.92,396.51 L1246.41,396.41 L1247.90,396.32 L1249.39,396.23 L1250.89,396.13 L1252.38,396.04 L1253.87,395.94 L1255.37,395.85 L1256.86,395.75 L1258.35,395.66 L1259.84,395.57 L1261.34,395.47 L1262.83,395.38 L1264.32,395.28 L1265.81,395.19 L1267.30,395.09 L1268.80,395.00 L1270.29,394.90 L1271.78,394.81 L1273.28,394.72 L1274.77,394.62 L1276.26,394.53 L1277.75,394.43 L1279.24,394.34 L1280.74,394.24 L1282.23,394.15 L1283.72,394.06 L1285.22,393.96 L1286.71,393.87 L1288.20,393.77"/><path d="M930.00,634.00 L930.61,634.13 L931.22,634.26 L931.83,634.39 L932.44,634.53 L933.05,634.66 L933.66,634.79 L934.27,634.92 L934.88,635.05 L935.48,635.18 L936.09,635.31 L936.70,635.44 L937.31,635.57 L937.92,635.71 L938.53,635.84 L939.14,635.97 L939.75,636.10 L940.36,636.23 L940.97,636.36 L941.58,636.49 L942.19,636.63 L942.80,636.76 L943.41,636.89 L944.02,637.02 L944.63,637.15 L945.23,637.28 L945.84,637.41 L946.45,637.54 L947.06,637.67 L947.67,637.81 L948.28,637.94 L948.89,638.07 L949.50,638.20 L950.11,638.33 L950.72,638.46 L951.33,638.59 L951.94,638.73 L952.55,638.86 L953.16,638.99 L953.77,639.12 L954.38,639.25 L954.98,639.38 L955.59,639.51 L956.20,639.64 L956.81,639.77 L957.42,639.91 L958.03,640.04 L958.64,640.17 L959.25,640.30 L959.86,640.43 L960.47,640.56 L961.08,640.69 L961.69,640.83 L962.30,640.96 L962.91,641.09 L963.52,641.22 L964.13,641.35 L964.73,641.48 L965.34,641.61 L965.95,641.74 L966.56,641.88 L967.17,642.01 L967.78,642.14 L968.39,642.27 L969.00,642.40 L969.61,642.53 L970.22,642.66 L970.83,642.79 L971.44,642.92 L972.05,643.06 L972.66,643.19 L973.27,643.32 L973.88,643.45 L974.48,643.58 L975.09,643.71 L975.70,643.84 L976.31,643.98 L976.92,644.11 L977.53,644.24 L978.14,644.37 L978.75,644.50 L979.36,644.63 L979.97,644.76 L980.58,644.89 L981.19,645.02 L981.80,645.16 L982.41,645.29 L983.02,645.42 L983.63,645.55 L984.23,645.68 L984.84,645.81 L985.45,645.94 L986.06,646.08 L986.67,646.21 L987.28,646.34 L987.89,646.47 L988.50,646.60 L989.11,646.73 L989.72,646.86 L990.33,646.99 L990.94,647.13 L991.55,647.26 L992.16,647.39 L992.77,647.52 L993.38,647.65 L993.98,647.78 L994.59,647.91 L995.20,648.04 L995.81,648.18 L996.42,648.31 L997.03,648.44 L997.64,648.57 L998.25,648.70 L998.86,648.83 L999.47,648.96 L1000.08,649.09 L1000.69,649.22 L1001.30,649.36 L1001.91,649.49 L1002.52,649.62 L1003.13,649.75 L1003.73,649.88 L1004.34,650.01 L1004.95,650.14 L1005.56,650.28 L1006.17,650.41 L1006.78,650.54 L1007.39,650.67 L1008.00,650.80 L1008.61,650.93 L1009.22,651.06 L1009.83,651.19 L1010.44,651.32 L1011.05,651.46 L1011.66,651.59 L1012.27,651.72 L1012.88,651.85 L1013.48,651.98 L1014.09,652.11 L1014.70,652.24 L1015.31,652.38 L1015.92,652.51 L1016.53,652.64 L1017.14,652.77 L1017.75,652.90 L1018.36,653.03 L1018.97,653.16 L1019.58,653.29 L1020.19,653.42 L1020.80,653.56 L1021.41,653.69 L1022.02,653.95 L1022.63,654.58 L1023.23,655.59 L1023.84,656.96 L1024.45,658.70 L1025.06,660.82 L1025.67,663.31 L1026.28,666.17 L1026.89,669.40 L1027.50,673.00"/><path d="M930.00,688.00 L930.61,688.00 L931.22,688.00 L931.83,688.00 L932.44,688.00 L933.05,688.00 L933.66,688.00 L934.27,688.00 L934.88,688.00 L935.48,688.00 L936.09,688.00 L936.70,688.00 L937.31,688.00 L937.92,688.00 L938.53,688.00 L939.14,688.00 L939.75,688.00 L940.36,688.00 L940.97,688.00 L941.58,688.00 L942.19,688.00 L942.80,688.00 L943.41,688.00 L944.02,688.00 L944.63,688.00 L945.23,688.00 L945.84,688.00 L946.45,688.00 L947.06,688.00 L947.67,688.00 L948.28,688.00 L948.89,688.00 L949.50,688.00 L950.11,688.00 L950.72,688.00 L951.33,688.00 L951.94,688.00 L952.55,688.00 L953.16,688.00 L953.77,688.00 L954.38,688.00 L954.98,688.00 L955.59,688.00 L956.20,688.00 L956.81,688.00 L957.42,688.00 L958.03,688.00 L958.64,688.00 L959.25,688.00 L959.86,688.00 L960.47,688.00 L961.08,688.00 L961.69,688.00 L962.30,688.00 L962.91,688.00 L963.52,688.00 L964.13,688.00 L964.73,688.00 L965.34,688.00 L965.95,688.00 L966.56,688.00 L967.17,688.00 L967.78,688.00 L968.39,688.00 L969.00,688.00 L969.61,688.00 L970.22,688.00 L970.83,688.00 L971.44,688.00 L972.05,688.00 L972.66,688.00 L973.27,688.00 L973.88,688.00 L974.48,688.00 L975.09,688.00 L975.70,688.00 L976.31,688.00 L976.92,688.00 L977.53,688.00 L978.14,688.00 L978.75,688.00 L979.36,688.00 L979.97,688.00 L980.58,688.00 L981.19,688.00 L981.80,688.00 L982.41,688.00 L983.02,688.00 L983.63,688.00 L984.23,688.00 L984.84,688.00 L985.45,688.00 L986.06,688.00 L986.67,688.00 L987.28,688.00 L987.89,688.00 L988.50,688.00 L989.11,688.00 L989.72,688.00 L990.33,688.00 L990.94,688.00 L991.55,688.00 L992.16,688.00 L992.77,688.00 L993.38,688.00 L993.98,688.00 L994.59,688.00 L995.20,688.00 L995.81,688.00 L996.42,688.00 L997.03,688.00 L997.64,688.00 L998.25,688.00 L998.86,688.00 L999.47,688.00 L1000.08,688.00 L1000.69,688.00 L1001.30,688.00 L1001.91,688.00 L1002.52,688.00 L1003.13,688.00 L1003.73,688.00 L1004.34,688.00 L1004.95,688.00 L1005.56,688.00 L1006.17,688.00 L1006.78,688.00 L1007.39,688.00 L1008.00,688.00 L1008.61,688.00 L1009.22,688.00 L1009.83,688.00 L1010.44,688.00 L1011.05,688.00 L1011.66,688.00 L1012.27,688.00 L1012.88,688.00 L1013.48,688.00 L1014.09,688.00 L1014.70,688.00 L1015.31,688.00 L1015.92,688.00 L1016.53,688.00 L1017.14,688.00 L1017.75,688.00 L1018.36,688.00 L1018.97,688.00 L1019.58,688.00 L1020.19,688.00 L1020.80,688.00 L1021.41,688.00 L1022.02,688.00 L1022.63,688.00 L1023.23,688.00 L1023.84,688.00 L1024.45,688.00 L1025.06,688.00 L1025.67,688.00 L1026.28,688.00 L1026.89,688.00 L1027.50,688.00"/><path d="M45.00,651.47 L49.29,651.10 L53.58,650.73 L57.87,650.36 L62.16,649.99 L66.45,649.62 L70.75,649.26 L75.04,648.89 L79.33,648.52 L83.62,648.15 L87.91,647.78 L92.20,647.41 L96.49,647.04 L100.78,646.67 L105.07,646.30 L109.36,645.94 L113.66,645.66 L117.95,645.48 L122.24,645.31 L126.53,645.13 L130.82,644.96 L135.11,644.78 L139.40,644.60 L143.69,644.43 L147.98,644.25 L152.27,644.08 L156.56,643.90 L160.86,643.72 L165.15,643.55 L169.44,643.37 L173.73,643.11 L178.02,642.78 L182.31,642.45 L186.60,642.12 L190.89,641.78 L195.18,641.45 L199.47,641.12 L203.76,640.78 L208.06,640.45 L212.35,640.12 L216.64,639.78 L220.93,639.45 L225.22,639.12 L229.51,638.78 L233.80,638.45 L238.09,638.12 L242.38,637.78 L246.67,637.45 L250.97,637.12 L255.26,636.78 L259.55,636.45 L263.84,636.12 L268.13,635.78 L272.42,635.45 L276.71,635.12 L281.00,634.78 L285.29,634.45 L289.58,634.12 L293.87,633.78 L298.17,633.45 L302.46,633.11 L306.75,632.78 L311.04,632.45 L315.33,632.11 L319.62,631.78 L323.91,631.45 L328.20,631.11 L332.49,630.78 L336.78,630.44 L341.07,630.11 L345.37,629.78 L349.66,629.44 L353.95,629.11 L358.24,628.77 L362.53,628.44 L366.82,628.10 L371.11,627.77 L375.40,627.44 L379.69,627.10 L383.98,626.77 L388.27,626.43 L392.57,626.10 L396.86,625.76 L401.15,625.43 L405.44,625.10 L409.73,624.76 L414.02,624.43 L418.31,624.09 L422.60,623.76 L426.89,623.42 L431.18,623.09 L435.48,622.75 L439.77,622.42 L444.06,622.09 L448.35,621.75 L452.64,621.42 L456.93,621.08 L461.22,620.75 L465.51,620.41 L469.80,620.08 L474.09,619.74 L478.38,619.41 L482.68,619.07 L486.97,618.74 L491.26,618.40 L495.55,618.07 L499.84,617.73 L504.13,617.40 L508.42,617.06 L512.71,616.73 L517.00,616.39 L521.29,616.06 L525.59,615.72 L529.88,615.39 L534.17,615.05 L538.46,614.72 L542.75,614.38 L547.04,614.05 L551.33,613.71 L555.62,613.38 L559.91,613.04 L564.20,612.70 L568.49,612.37 L572.79,612.03 L577.08,611.70 L581.37,611.36 L585.66,611.03 L589.95,610.69 L594.24,610.36 L598.53,610.02 L602.82,609.68 L607.11,609.35 L611.40,609.01 L615.69,608.68 L619.99,608.34 L624.28,608.01 L628.57,607.67 L632.86,607.33 L637.15,607.00 L641.44,606.66 L645.73,606.33 L650.02,605.99 L654.31,605.65 L658.60,605.32 L662.89,604.98 L667.19,604.65 L671.48,604.31 L675.77,603.97 L680.06,603.64 L684.35,603.30 L688.64,602.69 L692.93,601.84 L697.22,600.87 L701.51,600.54 L705.80,600.11 L710.10,599.58 L714.39,598.96 L718.68,598.27 L722.97,597.50 L727.26,596.65 L731.55,595.74"/></g><g class="reference"><path d="M199.58,245.22 L224.21,241.43 L274.92,244.54 L295.97,229.92 L315.70,219.46 L341.38,215.73 L367.86,216.29 L395.20,220.09 L429.87,225.39 L462.30,232.68 L491.17,246.12 L517.00,257.24 L543.96,267.38 L581.74,273.94 L622.81,278.58 L658.61,282.89 L684.15,281.27"/><path d="M198.02,270.58 L222.07,276.30 L235.57,298.34 L257.50,303.92 L286.82,309.96 L323.80,312.22 L362.03,311.38 L401.26,311.66 L439.62,308.71 L488.74,303.23 L534.55,299.68 L581.30,298.30 L631.02,300.29 L675.40,303.01 L722.82,308.03"/><path d="M658.61,282.89 L684.15,281.27 L694.18,273.40 L713.03,242.74 L728.45,216.11 L727.91,207.59 L741.90,204.21 L795.78,207.51"/><path d="M795.53,211.74 L785.26,292.77 L768.58,305.53 L722.75,309.09"/><path d="M965.70,331.57 L995.85,337.92 L1164.04,341.88 L1269.56,343.47 L1287.01,381.55 L1287.01,397.42"/><path d="M965.70,422.01 L995.85,414.87 L1164.04,403.77 L1261.62,397.42 L1287.01,397.42"/><path d="M930.00,627.49 L1018.85,648.91 L1026.79,663.19 L1026.79,669.54"/><path d="M930.00,679.06 L1026.79,679.06"/><path d="M111.91,650.14 L171.21,644.06 L431.23,627.33 L682.13,615.17 L729.27,586.28"/></g>
<path class="reference" d="M40,730 h35"/><text x="85" y="735" font-size="14">Digitized reference</text>
<path class="before" d="M280,730 h35"/><text x="325" y="735" font-size="14">Before this audit</text>
<path class="after" d="M525,730 h35"/><text x="570" y="735" font-size="14">Current geometry</text>
<text x="40" y="775" font-size="13">Component curves include hidden portions. Reference line thickness and registration limit precision; these are not engineering tolerances.</text>
<text x="40" y="798" font-size="13">Cessna side views use uniform length scale and hub registration; schematic residuals are not measured aircraft errors. See RESOLUTION.md.</text>
</svg>